<svg width="536" height="415" viewBox="0 0 536 415" fill="none" xmlns="http://www.w3.org/2000/svg">
<g filter="url(#filter0_f_2051_1487)">
<rect x="431.055" y="210.158" width="15.0406" height="15.0406" rx="1.48034" transform="rotate(-180 431.055 210.158)" fill="#00B068" fill-opacity="0.8"/>
<rect x="369.039" y="40.041" width="15.0406" height="15.0406" rx="1.48034" transform="rotate(-180 369.039 40.041)" fill="#00B068" fill-opacity="0.8"/>
<rect x="326" y="341" width="14" height="14" rx="1.48034" transform="rotate(-180 326 341)" fill="#00B068" fill-opacity="0.8"/>
<rect x="495.465" y="256.168" width="22.5609" height="22.5609" rx="1.48034" transform="rotate(-180 495.465 256.168)" fill="#00B068" fill-opacity="0.8"/>
<rect x="319.305" y="116.779" width="7.52029" height="7.52029" rx="1.48034" transform="rotate(-180 319.305 116.779)" fill="#00B068" fill-opacity="0.8"/>
<rect x="528.031" y="146.803" width="7.52029" height="7.52029" rx="1.48034" transform="rotate(-180 528.031 146.803)" fill="#00B068" fill-opacity="0.8"/>
<rect x="152.52" y="320.52" width="7.52029" height="7.52029" rx="1.48034" transform="rotate(-180 152.52 320.52)" fill="#00B068" fill-opacity="0.8"/>
<rect x="14.96" y="407.439" width="7.52029" height="7.52029" rx="1.48034" transform="rotate(-180 14.96 407.439)" fill="#00B068" fill-opacity="0.8"/>
<rect x="282.039" y="225.041" width="15.0406" height="15.0406" rx="1.48034" transform="rotate(-180 282.039 225.041)" fill="#00B068" fill-opacity="0.8"/>
<rect x="160.52" y="138.52" width="7.52029" height="7.52029" rx="1.48034" transform="rotate(-180 160.52 138.52)" fill="#00B068" fill-opacity="0.8"/>
</g>
<defs>
<filter id="filter0_f_2051_1487" x="-3.40169" y="-7.40169" width="540.803" height="422.803" filterUnits="userSpaceOnUse" color-interpolation-filters="sRGB">
<feFlood flood-opacity="0" result="BackgroundImageFix"/>
<feBlend mode="normal" in="SourceGraphic" in2="BackgroundImageFix" result="shape"/>
<feGaussianBlur stdDeviation="3.70084" result="effect1_foregroundBlur_2051_1487"/>
</filter>
</defs>
</svg>
