<svg aria-hidden="true" style="position: absolute; width: 0; height: 0; overflow: hidden;" version="1.1" xmlns="http://www.w3.org/2000/svg" xmlns:xlink="http://www.w3.org/1999/xlink">
<defs>
<symbol id="icon-custom" viewBox="0 0 32 32">
<path fill="#00b068" style="fill: var(--color1, #00b068)" opacity="0.1" d="M5.333 0h21.333c2.946 0 5.333 2.388 5.333 5.333v21.333c0 2.946-2.388 5.333-5.333 5.333h-21.333c-2.946 0-5.333-2.388-5.333-5.333v-21.333c0-2.946 2.388-5.333 5.333-5.333z"></path>
<path fill="none" stroke="#00b068" style="stroke: var(--color1, #00b068)" stroke-linejoin="round" stroke-linecap="round" stroke-miterlimit="4" stroke-width="1.3333" d="M16.519 18l-2.519-2.518"></path>
<path fill="none" stroke="#00b068" style="stroke: var(--color1, #00b068)" stroke-linejoin="round" stroke-linecap="round" stroke-miterlimit="4" stroke-width="1.3333" d="M9.333 22.666c1.333 0 3.072 0.228 3.983-0.683s0.911-2.389 0-3.3c-0.911-0.911-2.389-0.911-3.3 0s0 2.65-0.683 3.983z"></path>
<path fill="none" stroke="#00b068" style="stroke: var(--color1, #00b068)" stroke-linejoin="round" stroke-linecap="round" stroke-miterlimit="4" stroke-width="1.3333" d="M13.333 18.666c-0.328-0.328-0.491-0.491-0.584-0.663-0.222-0.411-0.213-0.909 0.025-1.311 0.099-0.168 0.269-0.325 0.609-0.64l6.579-6.091c0.579-0.536 1.479-0.519 2.038 0.039s0.576 1.458 0.039 2.038l-6.091 6.579c-0.315 0.34-0.472 0.51-0.64 0.609-0.403 0.238-0.9 0.247-1.311 0.025-0.172-0.093-0.335-0.256-0.663-0.584z"></path>
</symbol>

<symbol id="icon-down_dropdown" viewBox="0 0 32 32">
<path stroke-linejoin="miter" stroke-linecap="round" stroke-miterlimit="4" stroke-width="2.6667" d="M24 12l-8 8-8-8"></path>
</symbol>

<symbol id="icon-greenArrow" viewBox="0 0 32 32">
<path stroke-linejoin="round" stroke-linecap="round" stroke-miterlimit="4" stroke-width="3.5556" d="M3.111 28.889l25.778-25.778M28.889 3.111h-24M28.889 3.111v24"></path>
</symbol>

<symbol id="icon-left_arrow" viewBox="0 0 32 32">
<path fill="none" stroke="#ccc" style="stroke: var(--color2, #ccc)" stroke-linejoin="round" stroke-linecap="round" stroke-miterlimit="4" stroke-width="2.6667" d="M26.667 16h-21.333"></path>
<path fill="none" stroke="#ccc" style="stroke: var(--color2, #ccc)" stroke-linejoin="round" stroke-linecap="round" stroke-miterlimit="4" stroke-width="2.6667" d="M13.333 24l-8-8 8-8"></path>
</symbol>

<symbol id="icon-logo" viewBox="0 0 233 32">
<path fill="#292929" style="fill: var(--color3, #292929)" d="M7.891 3.703v20.234h4v5.063h-10.578v-25.297h6.578zM21.578 3.703v20.234h4v5.063h-10.578v-25.297h6.578zM43.219 18.516c0 2.542-0.063 4.344-0.188 5.406-0.114 1.052-0.489 2.016-1.125 2.891-0.625 0.875-1.474 1.547-2.547 2.016s-2.323 0.703-3.75 0.703c-1.354 0-2.573-0.219-3.656-0.656-1.073-0.448-1.938-1.115-2.594-2s-1.047-1.849-1.172-2.891c-0.125-1.042-0.188-2.865-0.188-5.469v-4.328c0-2.542 0.057-4.339 0.172-5.391 0.125-1.063 0.5-2.031 1.125-2.906 0.635-0.875 1.49-1.547 2.563-2.016s2.323-0.703 3.75-0.703c1.354 0 2.568 0.224 3.641 0.672 1.083 0.438 1.953 1.099 2.609 1.984s1.047 1.849 1.172 2.891 0.188 2.865 0.188 5.469v4.328zM36.641 10.203c0-1.177-0.068-1.927-0.203-2.25-0.125-0.333-0.391-0.5-0.797-0.5-0.344 0-0.609 0.135-0.797 0.406-0.177 0.26-0.266 1.042-0.266 2.344v11.813c0 1.469 0.057 2.375 0.172 2.719 0.125 0.344 0.406 0.516 0.844 0.516 0.448 0 0.734-0.198 0.859-0.594s0.188-1.338 0.188-2.828v-11.625zM61.203 3.703l-4.797 16.141v9.156h-6.094v-9.156l-4.625-16.141h6.047c0.948 4.927 1.479 8.245 1.594 9.953 0.365-2.698 0.974-6.016 1.828-9.953h6.047zM63.844 3.703h4.922c3.177 0 5.323 0.146 6.438 0.438 1.125 0.292 1.979 0.771 2.563 1.438s0.948 1.411 1.094 2.234c0.146 0.813 0.219 2.417 0.219 4.813v8.859c0 2.271-0.109 3.792-0.328 4.563-0.208 0.76-0.578 1.359-1.109 1.797-0.531 0.427-1.188 0.729-1.969 0.906-0.781 0.167-1.958 0.25-3.531 0.25h-8.297v-25.297zM70.422 8.031v16.641c0.948 0 1.531-0.188 1.75-0.563 0.219-0.385 0.328-1.422 0.328-3.109v-9.828c0-1.146-0.037-1.88-0.109-2.203s-0.24-0.557-0.5-0.703c-0.26-0.156-0.75-0.234-1.469-0.234z"></path>
<path fill="#00b068" style="fill: var(--color1, #00b068)" d="M91.078 3.703v16.906c0 2.531-0.026 4.161-0.078 4.891-0.052 0.719-0.292 1.37-0.719 1.953-0.417 0.583-0.99 0.99-1.719 1.219-0.719 0.219-1.807 0.328-3.266 0.328h-3.297v-4.422c0.396 0.031 0.682 0.047 0.859 0.047 0.469 0 0.838-0.115 1.109-0.344s0.427-0.51 0.469-0.844 0.063-0.979 0.063-1.938v-17.797h6.578zM95.125 3.703h10.969v5.063h-4.391v4.797h4.109v4.813h-4.109v5.563h4.828v5.063h-11.406v-25.297zM109.938 3.703h11.14v5.063h-4.562v4.797h4.062v4.813h-4.062v10.625h-6.578v-25.297zM124.188 3.703h11.14v5.063h-4.562v4.797h4.062v4.813h-4.062v10.625h-6.578v-25.297zM138.438 3.703h10.968v5.063h-4.39v4.797h4.109v4.813h-4.109v5.563h4.828v5.063h-11.406v-25.297zM153.25 3.703h4.656c3.104 0 5.203 0.12 6.297 0.359 1.104 0.24 2 0.854 2.688 1.844 0.698 0.979 1.047 2.547 1.047 4.703 0 1.969-0.245 3.292-0.735 3.969-0.489 0.677-1.453 1.083-2.891 1.219 1.303 0.323 2.178 0.755 2.626 1.297 0.447 0.542 0.723 1.042 0.828 1.5 0.114 0.448 0.172 1.693 0.172 3.734v6.672h-6.11v-8.406c0-1.354-0.109-2.193-0.328-2.516-0.208-0.323-0.766-0.484-1.672-0.484v11.406h-6.578v-25.297zM159.828 8.031v5.625c0.74 0 1.255-0.099 1.547-0.297 0.302-0.208 0.453-0.87 0.453-1.984v-1.391c0-0.802-0.146-1.328-0.437-1.578-0.282-0.25-0.802-0.375-1.563-0.375zM185.938 11.359h-6.11v-1.875c0-0.875-0.078-1.432-0.234-1.672s-0.417-0.359-0.782-0.359c-0.395 0-0.697 0.161-0.906 0.484-0.198 0.323-0.297 0.813-0.297 1.469 0 0.844 0.115 1.479 0.344 1.906 0.219 0.427 0.839 0.943 1.859 1.547 2.928 1.74 4.771 3.167 5.532 4.281 0.76 1.115 1.14 2.912 1.14 5.391 0 1.802-0.213 3.13-0.64 3.984-0.417 0.854-1.229 1.573-2.438 2.156-1.208 0.573-2.614 0.859-4.218 0.859-1.761 0-3.266-0.333-4.516-1-1.24-0.667-2.052-1.516-2.438-2.547-0.385-1.031-0.578-2.495-0.578-4.391v-1.656h6.11v3.078c0 0.948 0.083 1.557 0.25 1.828 0.177 0.271 0.484 0.406 0.922 0.406s0.76-0.172 0.968-0.516c0.219-0.344 0.328-0.854 0.328-1.531 0-1.49-0.203-2.463-0.609-2.922-0.417-0.458-1.443-1.224-3.078-2.297-1.636-1.083-2.719-1.87-3.25-2.359s-0.974-1.167-1.328-2.031c-0.344-0.865-0.516-1.969-0.516-3.313 0-1.937 0.245-3.354 0.735-4.25 0.5-0.896 1.302-1.594 2.406-2.094 1.104-0.51 2.437-0.766 4-0.766 1.708 0 3.161 0.276 4.359 0.828 1.208 0.552 2.005 1.25 2.391 2.094 0.396 0.833 0.594 2.255 0.594 4.266v1zM205.094 18.516c0 2.542-0.063 4.344-0.188 5.406-0.114 1.052-0.489 2.016-1.125 2.891-0.625 0.875-1.474 1.547-2.547 2.016s-2.323 0.703-3.75 0.703c-1.354 0-2.573-0.219-3.656-0.656-1.073-0.448-1.937-1.115-2.594-2s-1.046-1.849-1.172-2.891c-0.124-1.042-0.187-2.865-0.187-5.469v-4.328c0-2.542 0.057-4.339 0.172-5.391 0.125-1.063 0.5-2.031 1.125-2.906 0.635-0.875 1.489-1.547 2.562-2.016s2.323-0.703 3.75-0.703c1.355 0 2.568 0.224 3.641 0.672 1.083 0.438 1.953 1.099 2.609 1.984 0.657 0.885 1.047 1.849 1.172 2.891s0.188 2.865 0.188 5.469v4.328zM198.516 10.203c0-1.177-0.068-1.927-0.204-2.25-0.124-0.333-0.39-0.5-0.796-0.5-0.344 0-0.61 0.135-0.797 0.406-0.177 0.26-0.266 1.042-0.266 2.344v11.813c0 1.469 0.057 2.375 0.172 2.719 0.125 0.344 0.406 0.516 0.844 0.516 0.448 0 0.734-0.198 0.859-0.594s0.188-1.338 0.188-2.828v-11.625zM223.75 3.703v25.297h-5.766l-3.422-11.5v11.5h-5.5v-25.297h5.5l3.688 11.391v-11.391h5.5zM231.922 23.844v5.156h-4.766v-5.156h4.766z"></path>
</symbol>

<symbol id="icon-mail" viewBox="0 0 32 32">
<path stroke-linejoin="round" stroke-linecap="round" stroke-miterlimit="4" stroke-width="1.3333" d="M29 9v14c0 0.796-0.316 1.559-0.879 2.121s-1.326 0.879-2.121 0.879h-20c-0.796 0-1.559-0.316-2.121-0.879s-0.879-1.326-0.879-2.121v-14M29 9c0-0.796-0.316-1.559-0.879-2.121s-1.326-0.879-2.121-0.879h-20c-0.796 0-1.559 0.316-2.121 0.879s-0.879 1.326-0.879 2.121M29 9v0.324c0 0.512-0.131 1.016-0.381 1.463s-0.61 0.823-1.046 1.092l-10 6.153c-0.473 0.291-1.018 0.446-1.573 0.446s-1.1-0.154-1.573-0.446l-10-6.152c-0.436-0.269-0.796-0.644-1.046-1.092s-0.381-0.951-0.381-1.463v-0.325"></path>
</symbol>

<symbol id="icon-map" viewBox="0 0 32 32">
<path stroke-linejoin="round" stroke-linecap="round" stroke-miterlimit="4" stroke-width="1.3333" d="M20 14c0 1.061-0.421 2.078-1.172 2.828s-1.768 1.172-2.828 1.172c-1.061 0-2.078-0.421-2.828-1.172s-1.172-1.768-1.172-2.828c0-1.061 0.421-2.078 1.172-2.828s1.768-1.172 2.828-1.172c1.061 0 2.078 0.421 2.828 1.172s1.172 1.768 1.172 2.828v0z"></path>
<path stroke-linejoin="round" stroke-linecap="round" stroke-miterlimit="4" stroke-width="1.3333" d="M26 14c0 9.523-10 15-10 15s-10-5.477-10-15c0-2.652 1.054-5.196 2.929-7.071s4.419-2.929 7.071-2.929c2.652 0 5.196 1.054 7.071 2.929s2.929 4.419 2.929 7.071v0z"></path>
</symbol>

<symbol id="icon-phone" viewBox="0 0 32 32">
<path stroke-linejoin="round" stroke-linecap="round" stroke-miterlimit="4" stroke-width="1.3333" d="M3 9c0 11.045 8.955 20 20 20h3c0.796 0 1.559-0.316 2.121-0.879s0.879-1.326 0.879-2.121v-1.829c0-0.688-0.468-1.288-1.136-1.455l-5.897-1.475c-0.587-0.147-1.203 0.073-1.564 0.556l-1.293 1.724c-0.376 0.501-1.025 0.723-1.613 0.507-2.183-0.803-4.165-2.070-5.81-3.714s-2.912-3.627-3.714-5.81c-0.216-0.588 0.005-1.237 0.507-1.613l1.724-1.293c0.484-0.361 0.703-0.979 0.556-1.564l-1.475-5.897c-0.081-0.324-0.268-0.612-0.532-0.818s-0.588-0.318-0.923-0.318h-1.829c-0.796 0-1.559 0.316-2.121 0.879s-0.879 1.326-0.879 2.121v3z"></path>
</symbol>

<symbol id="icon-profile" viewBox="0 0 32 32">
<path fill="#00b068" style="fill: var(--color1, #00b068)" opacity="0.1" d="M5.333 0h21.333c2.946 0 5.333 2.388 5.333 5.333v21.333c0 2.946-2.388 5.333-5.333 5.333h-21.333c-2.946 0-5.333-2.388-5.333-5.333v-21.333c0-2.946 2.388-5.333 5.333-5.333z"></path>
<path fill="none" stroke="#00b068" style="stroke: var(--color1, #00b068)" stroke-linejoin="round" stroke-linecap="round" stroke-miterlimit="4" stroke-width="1.3333" d="M21.333 22c0-0.93 0-1.396-0.115-1.774-0.259-0.852-0.926-1.519-1.778-1.778-0.379-0.115-0.844-0.115-1.774-0.115h-3.333c-0.93 0-1.396 0-1.774 0.115-0.852 0.259-1.519 0.926-1.778 1.778-0.115 0.379-0.115 0.844-0.115 1.774"></path>
<path fill="none" stroke="#00b068" style="stroke: var(--color1, #00b068)" stroke-linejoin="round" stroke-linecap="round" stroke-miterlimit="4" stroke-width="1.3333" d="M16 16c1.657 0 3-1.343 3-3s-1.343-3-3-3c-1.657 0-3 1.343-3 3s1.343 3 3 3z"></path>
</symbol>

<symbol id="icon-right_arrow" viewBox="0 0 32 32">
<path stroke-linejoin="round" stroke-linecap="round" stroke-miterlimit="4" stroke-width="2.6667" d="M5.333 16h21.333"></path>
<path stroke-linejoin="round" stroke-linecap="round" stroke-miterlimit="4" stroke-width="2.6667" d="M18.667 8l8 8-8 8"></path>
</symbol>

<symbol id="icon-up_dropdown" viewBox="0 0 32 32">
<path stroke-linejoin="miter" stroke-linecap="round" stroke-miterlimit="4" stroke-width="2.6667" d="M24 20l-8-8-8 8"></path>
</symbol>

<symbol id="icon-x" viewBox="0 0 32 32">
<path stroke-linejoin="round" stroke-linecap="round" stroke-miterlimit="4" stroke-width="2.6667" d="M24 8l-16 16"></path>
<path stroke-linejoin="round" stroke-linecap="round" stroke-miterlimit="4" stroke-width="2.6667" d="M8 8l16 16"></path>
</symbol>
<symbol id="icon-ep_success-filled" viewBox="0 0 32 32">
<path fill="#00b068" d="M16 2a14.002 14.002 0 0 1 14 14c0 3.713-1.475 7.274-4.101 9.899a13.996 13.996 0 0 1-19.798 0 13.996 13.996 0 0 1 0-19.798A13.998 13.998 0 0 1 16 2zm-1.744 16.762-3.11-3.112a1.196 1.196 0 0 0-.849-.351 1.2 1.2 0 0 0-.849 2.049l3.96 3.96a1.197 1.197 0 0 0 1.698 0l8.2-8.202a1.187 1.187 0 0 0 .358-.85 1.203 1.203 0 0 0-.742-1.115c-.146-.06-.303-.091-.462-.091s-.315.032-.461.094a1.202 1.202 0 0 0-.39.264l-7.354 7.354z" style="fill:var(--color1, #00b068)"/>
</symbol>
<symbol id="icon-wait" viewBox="0 0 32 32">
<path fill="#00b068" style="fill: var(--color1, #00b068)" opacity="0.1" d="M5.333 0h21.333c2.946 0 5.333 2.388 5.333 5.333v21.333c0 2.946-2.388 5.333-5.333 5.333h-21.333c-2.946 0-5.333-2.388-5.333-5.333v-21.333c0-2.946 2.388-5.333 5.333-5.333z"></path>
<path fill="none" stroke="#00b068" style="stroke: var(--color1, #00b068)" stroke-linejoin="round" stroke-linecap="round" stroke-miterlimit="4" stroke-width="1.3333" d="M20.108 9.333h-8.217c-0.308 0-0.558 0.25-0.558 0.558 0 1.777 0.706 3.481 1.962 4.737l0.813 0.813c0.081 0.081 0.121 0.121 0.15 0.16 0.176 0.236 0.176 0.561 0 0.797-0.029 0.039-0.069 0.079-0.15 0.16l-0.813 0.813c-1.256 1.256-1.962 2.96-1.962 4.737 0 0.308 0.25 0.558 0.558 0.558h8.217c0.308 0 0.558-0.25 0.558-0.558 0-1.777-0.706-3.481-1.962-4.737l-0.813-0.813c-0.081-0.081-0.121-0.121-0.15-0.16-0.176-0.236-0.176-0.561 0-0.797 0.029-0.039 0.069-0.079 0.15-0.16l0.813-0.813c1.256-1.256 1.962-2.96 1.962-4.737 0-0.308-0.25-0.558-0.558-0.558z"></path>
</symbol>
<symbol id="icon-hero_arrow" viewBox="0 0 60 32">
<path d="M2 14c-1.105 0-2 0.895-2 2s0.895 2 2 2v-4zM59.414 17.414c0.781-0.781 0.781-2.047 0-2.828l-12.728-12.728c-0.781-0.781-2.047-0.781-2.828 0s-0.781 2.047 0 2.828l11.314 11.314-11.314 11.314c-0.781 0.781-0.781 2.047 0 2.828s2.047 0.781 2.828 0l12.728-12.728zM2 18h56v-4h-56v4z"></path>
</symbol>
<symbol id="icon-user" viewBox="0 0 32 32">
<path stroke-linejoin="round" stroke-linecap="round" stroke-miterlimit="4" stroke-width="2.6667" d="M26.667 28c0-1.861 0-2.791-0.23-3.548-0.517-1.705-1.851-3.039-3.556-3.556-0.757-0.23-1.687-0.23-3.548-0.23h-6.667c-1.861 0-2.791 0-3.548 0.23-1.705 0.517-3.038 1.851-3.556 3.556-0.23 0.757-0.23 1.687-0.23 3.548"></path>
<path stroke-linejoin="round" stroke-linecap="round" stroke-miterlimit="4" stroke-width="2.6667" d="M16 16c3.314 0 6-2.686 6-6s-2.686-6-6-6c-3.314 0-6 2.686-6 6s2.686 6 6 6z"></path>
</symbol>
<symbol id="icon-message" viewBox="0 0 32 32">
<path stroke-linejoin="round" stroke-linecap="round" stroke-miterlimit="4" stroke-width="2.6667" d="M8.126 14.972c-0.083-0.534-0.126-1.081-0.126-1.638 0-5.891 4.807-10.667 10.737-10.667s10.737 4.776 10.737 10.667c0 1.331-0.245 2.605-0.693 3.779-0.093 0.244-0.14 0.366-0.161 0.461s-0.029 0.161-0.031 0.257c-0.002 0.097 0.011 0.205 0.037 0.42l0.537 4.36c0.058 0.472 0.087 0.708 0.009 0.88-0.069 0.15-0.191 0.27-0.343 0.335-0.173 0.075-0.409 0.040-0.879-0.029l-4.247-0.623c-0.222-0.033-0.333-0.049-0.434-0.048-0.1 0.001-0.169 0.008-0.267 0.028s-0.225 0.068-0.477 0.163c-1.178 0.441-2.454 0.683-3.787 0.683-0.558 0-1.105-0.042-1.64-0.124M10.175 29.333c3.953 0 7.158-3.283 7.158-7.333s-3.205-7.333-7.158-7.333c-3.953 0-7.158 3.283-7.158 7.333 0 0.814 0.13 1.597 0.369 2.329 0.101 0.309 0.152 0.464 0.168 0.57 0.017 0.11 0.020 0.172 0.014 0.284-0.006 0.107-0.033 0.227-0.086 0.469l-0.815 3.682 3.993-0.545c0.218-0.030 0.327-0.045 0.422-0.044 0.1 0.001 0.153 0.006 0.252 0.026 0.093 0.019 0.232 0.067 0.51 0.165 0.731 0.258 1.516 0.398 2.332 0.398z"></path>
</symbol>
<symbol id="icon-brush" viewBox="0 0 32 32">
<path stroke-linejoin="round" stroke-linecap="round" stroke-miterlimit="4" stroke-width="2.6667" d="M17.037 20.001l-5.037-5.037"></path>
<path stroke-linejoin="round" stroke-linecap="round" stroke-miterlimit="4" stroke-width="2.6667" d="M2.667 29.332c2.667 0 6.144 0.456 7.966-1.367s1.822-4.777 0-6.6c-1.822-1.822-4.777-1.822-6.6 0s0 5.3-1.367 7.967z"></path>
<path stroke-linejoin="round" stroke-linecap="round" stroke-miterlimit="4" stroke-width="2.6667" d="M10.667 21.332c-0.655-0.655-0.983-0.983-1.168-1.326-0.444-0.823-0.425-1.818 0.050-2.623 0.198-0.336 0.538-0.651 1.218-1.28l13.157-12.183c1.159-1.073 2.959-1.038 4.075 0.078s1.151 2.917 0.078 4.075l-12.183 13.157c-0.63 0.68-0.944 1.020-1.28 1.218-0.805 0.475-1.8 0.495-2.623 0.050-0.343-0.185-0.671-0.513-1.326-1.168z"></path>
</symbol>
<symbol id="icon-hourglass" viewBox="0 0 32 32">
<path stroke-linejoin="round" stroke-linecap="round" stroke-miterlimit="4" stroke-width="2.6667" d="M24.217 2.667h-16.434c-0.617 0-1.117 0.5-1.117 1.117 0 3.554 1.412 6.962 3.925 9.475l1.626 1.626c0.161 0.161 0.242 0.242 0.3 0.32 0.352 0.473 0.352 1.121 0 1.594-0.058 0.077-0.139 0.158-0.3 0.32l-1.626 1.626c-2.513 2.513-3.925 5.921-3.925 9.475 0 0.617 0.5 1.117 1.117 1.117h16.434c0.617 0 1.117-0.5 1.117-1.117 0-3.554-1.412-6.962-3.925-9.475l-1.626-1.626c-0.161-0.161-0.242-0.242-0.3-0.32-0.353-0.473-0.353-1.121 0-1.594 0.058-0.077 0.139-0.158 0.3-0.32l1.626-1.626c2.513-2.513 3.925-5.921 3.925-9.475 0-0.617-0.5-1.117-1.117-1.117z"></path>
</symbol>
</defs>
</svg>
